# xmcd CD database file
#
# Track frame offsets:
#	150
#	17250
#	44037
#	73066
#	88636
#	104893
#	128661
#	150596
#	181862
#	199789
#	212788
#	241263
#	265254
#	296082
#	328687
#
# Disc length: 4783 seconds
#
# Revision: 0
# Processed by: cddbd v1.5.2PL0 Copyright (c) Steve Scherf et al.
# Submitted via: CDex 1.51
#
DISCID=dc12ad0f
DTITLE=Joe Louis Walker - 2011 mp3 Favorites 2
DYEAR=2011
DGENRE=Blues
TTITLE0=I Need Someone
TTITLE1=Rain On My Mind
TTITLE2=12-Step Lovin'
TTITLE3=One Time Around
TTITLE4=Runnin' From The Devil
TTITLE5=Trouble On Wheels
TTITLE6=Slow Down GTO
TTITLE7=No Easy Kind Of Loving
TTITLE8=I Got Loaded
TTITLE9=Pickin' The Blues
TTITLE10=It's A Shame
TTITLE11=Hustlin'
TTITLE12=Highview
TTITLE13=100% More Man
TTITLE14=If There's A Heaven
EXTD=YEAR: 2011
EXTT0=
EXTT1=
EXTT2=
EXTT3=
EXTT4=
EXTT5=
EXTT6=
EXTT7=
EXTT8=
EXTT9=
EXTT10=
EXTT11=
EXTT12=
EXTT13=
EXTT14=
PLAYORDER=
